<?xml version="1.0" standalone="no"?>
<svg width="64" height="64" viewBox="0 0 384 384" version="1.1" xmlns="http://www.w3.org/2000/svg">
  <path d="M318 222c0 -114 28 -126 66 -158h-384c38 32 66 44 66 158c0 98 53 130 102 138v2c0 12 11 22 24 22s24 -10 24 -22v-2c49 -7 102 -40 102 -138zM43 80h298c-25 25 -40 58 -40 142c0 46 -13 80 -37 101c-23 19 -52 23 -72 23s-49 -4 -72 -23c-25 -21 -37 -55 -37 -101 c0 -51 -5 -85 -17 -110c-6 -13 -14 -23 -23 -32zM192 0c-27 0 -49 20 -52 43h104c-3 -23 -25 -43 -52 -43z" transform="matrix(1,0,0,-1,0,384)"/>
</svg>